Broken Blossoms (1919) Kino, (Silent, Tinted B & W)

Director: D.W. Griffith

D. W. Griffith reached a pinnacle of expressiveness in this tender yet tragic tale of love and suffering in the seedy Limehouse district of London.

Richard Barthelmess gives a sensitive portrayal of a Chinese man who travels to England to spread the pacifist teachings of the Orient, but it is Lillian Gish who illuminates the screen. In this, the most heart-rending performance of her career, she plays a fifteen-year-old street urchin who longs to escape her miserable existence. Emotionally scarred by the torment and neglect of her abusive father (Donald Crisp), she collapses in the shop of the lonely and disillusioned yellow man. As he tenderly nurses her back to health, an unspoken romance flowers between them, awakening in each of them feelings of love they thought themselves forever denied.

In some ways, Broken Blossoms was Griffith's response to critics of The Birth Of A Nation, an effort to clear himself of lingering charges of racism. However, cinematic convention forbade physical intimacy between the two races. With this in mind, Griffith took what might have been a bold interracial romance and turned it into something more ethereal, a form of cinematic poetry that engages the viewer through subtle gestures and changes of expression, meticulously choreographed and gracefully assembled.

Featuring Lillian Gish, Richard Barthelmess, Donald Crisp. This exclusive Kino on Video edition was digitally remastered from a 35mm print at the correct projection speed, with color tints and a new score by Joseph Turrin, recorded in digital stereo. 

Unlike Griffith’s more extravagant earlier works like The Birth of a Nation or Intolerance, Broken Blossoms is a small scale film that uses controlled studio environments to create a more intimate effect.

Griffith was known for his willingness to collaborate with his actors and on many occasions join them in research outings.
The visual style of Broken Blossoms emphasises the seedy Limehouse streets with their dark shadows, drug addicts and drunkards, contrasting them with the beauty of Cheng and Lucy’s innocent attachment as expressed by Cheng’s decorative apartment. Conversely, the Burrows' bare cell reeks of oppression and hostility. Film critic and historian Richard Schickel goes so far as to credit this gritty realism with inspiring the likes of Pabst, Stiller, von Sternberg, and others, and then re emerging in the United States in the sound era, in the genre identified as Film Noir.

Griffith was unsure of his final product and took several months to complete the editing saying I can’t look at the damn thing; it depresses me so.

Media Info:
General
Complete name                    : J:\Seeding\Broken Blossoms (1919)[DVDRip][big_dad_e]\Broken Blossoms (1919)[DVDRip][big_dad_e].avi
Format                           : AVI
Format/Info                      : Audio Video Interleave
File size                        : 855 MiB
Duration                         : 1h 29mn
Overall bit rate                 : 1 338 Kbps

Video
ID                               : 0
Format                           : MPEG-4 Visual
Format profile                   : Simple@L1
Format settings, BVOP            : No
Format settings, QPel            : No
Format settings, GMC             : No warppoints
Format settings, Matrix          : Default (H.263)
Codec ID                         : DIVX
Codec ID/Info                    : Project Mayo
Codec ID/Hint                    : DivX 4
Duration                         : 1h 29mn
Bit rate                         : 1 196 Kbps
Width                            : 720 pixels
Height                           : 480 pixels
Display aspect ratio             : 4:3
Frame rate                       : 29.970 fps
Standard                         : NTSC
Color space                      : YUV
Chroma subsampling               : 4:2:0
Bit depth                        : 8 bits
Scan type                        : Progressive
Bits/(Pixel*Frame)               : 0.115
Stream size                      : 764 MiB (89%)
Writing library                  : avc2.0.11.1110

Audio
ID                               : 1
Format                           : MPEG Audio
Format version                   : Version 1
Format profile                   : Layer 3
Mode                             : Joint stereo
Mode extension                   : MS Stereo
Codec ID                         : 55
Codec ID/Hint                    : MP3
Duration                         : 1h 29mn
Bit rate mode                    : Constant
Bit rate                         : 128 Kbps
Channel(s)                       : 2 channels
Sampling rate                    : 48.0 KHz
Stream size                      : 81.8 MiB (10%)
Alignment                        : Aligned on interleaves
Interleave, duration             : 24 ms (0.72 video frame)

File Scan:
Malwarebytes' Anti-Malware 1.46
www.malwarebytes.org

Database version: 5102

Windows 5.1.2600 Service Pack 3
Internet Explorer 8.0.6001.18702

11/12/2010 8:54:13 PM
mbam-log-2010-11-12 (20-54-13).txt

Scan type: Quick scan
Objects scanned: 6
Time elapsed: 12 second(s)

Memory Processes Infected: 0
Memory Modules Infected: 0
Registry Keys Infected: 0
Registry Values Infected: 0
Registry Data Items Infected: 0
Folders Infected: 0
Files Infected: 0

Memory Processes Infected:
(No malicious items detected)

Memory Modules Infected:
(No malicious items detected)

Registry Keys Infected:
(No malicious items detected)

Registry Values Infected:
(No malicious items detected)

Registry Data Items Infected:
(No malicious items detected)

Folders Infected:
(No malicious items detected)

Files Infected:
(No malicious items detected)

When using TPB please read these important notes:
  
01- Anti-malware apps may warn about keygens, patches, cracks, etc., because of 
    their capabilities, (generating codes, etc.). Sometimes they're added to 
    the virus/spyware database and will be detected as malware. If you don't trust
    the keygens, patches, cracks, etc., don't use them. 
    
02- Before running .exe-files, keygens, patches, cracks, etc., always check first 
    if they can be unpacked. Often some third party added a virus to the 
    original file, repacked it and uploaded it again.

03- Letting anti-malware apps send scan results to their companies can cause
    keygens, patches, cracks, etc., to be added to their virus-database.

04- Firewalls which are set to automatically determine connections will allow 
    apps & malware!. Avoid this by manually configuring your firewall.

05- Usually (new) torrents with many downloads and seeders in a brief period is
    suspicious! Torrents with the Skull & Crossbones icon are trusted.

06- Some people use multiple accounts and post fake comments 
    and/or files trying to spread confusion. They seldom seriously
    comment or have any torrents, or a just a few to look passable.

07- Clicking on unknown links can cause malware to be installed on your machine.
  
08- In general often there are more fake and negative comments than reliable and
    positive comments.

09- In some countries uploading/downloading copyright protected material is 
    forbidden, but showing some appreciation to reliable up-loaders is not.

10- Posting fake and negative comments or fake/infected uploads on TPB can result
    in getting banned from TPB!

Requests?  Find me on SuprBay.
 

For reporting bad or suspicious torrents:  
http://forum.suprbay.org/forumdisplay.php?fid=29

For more of my torrents: 
https://thepiratebay.org/user/big_dad_e/  (Secured)

All torrents scanned with:
Norton Anti-virus
Malwarebytes' Anti-malware
 
http://www.pirate-party.us/

ALWAYS SEED & THANKS SEEDERS!